<mxfile host="app.diagrams.net" modified="2024-04-04T17:19:20.768Z" agent="Mozilla/5.0 (Windows NT 10.0; Win64; x64) AppleWebKit/537.36 (KHTML, like Gecko) Chrome/120.0.0.0 YaBrowser/24.1.0.0 Safari/537.36" etag="YZ1DCbrnkiG1TNJ26YNH" version="24.2.2" type="device">
  <diagram name="Страница — 1" id="Qgc2Hz0kxSb7C2hFwRjE">
    <mxGraphModel dx="1027" dy="586" grid="1" gridSize="10" guides="1" tooltips="1" connect="1" arrows="1" fold="1" page="1" pageScale="1" pageWidth="827" pageHeight="1169" math="0" shadow="0">
      <root>
        <mxCell id="0" />
        <mxCell id="1" parent="0" />
        <mxCell id="p-Zi2nhUh6BRqCjE6ldl-1" value="Animals" style="shape=table;startSize=30;container=1;collapsible=0;childLayout=tableLayout;fixedRows=1;rowLines=0;fontStyle=0;strokeColor=default;fontSize=16;" vertex="1" parent="1">
          <mxGeometry x="324" y="40" width="180" height="60" as="geometry" />
        </mxCell>
        <mxCell id="p-Zi2nhUh6BRqCjE6ldl-8" value="" style="shape=tableRow;horizontal=0;startSize=0;swimlaneHead=0;swimlaneBody=0;top=0;left=0;bottom=0;right=0;collapsible=0;dropTarget=0;fillColor=none;points=[[0,0.5],[1,0.5]];portConstraint=eastwest;strokeColor=inherit;fontSize=16;" vertex="1" parent="p-Zi2nhUh6BRqCjE6ldl-1">
          <mxGeometry y="30" width="180" height="30" as="geometry" />
        </mxCell>
        <mxCell id="p-Zi2nhUh6BRqCjE6ldl-9" value="" style="shape=partialRectangle;html=1;whiteSpace=wrap;connectable=0;fillColor=none;top=0;left=0;bottom=0;right=0;overflow=hidden;strokeColor=inherit;fontSize=16;" vertex="1" parent="p-Zi2nhUh6BRqCjE6ldl-8">
          <mxGeometry width="40" height="30" as="geometry">
            <mxRectangle width="40" height="30" as="alternateBounds" />
          </mxGeometry>
        </mxCell>
        <mxCell id="p-Zi2nhUh6BRqCjE6ldl-10" value="" style="shape=partialRectangle;html=1;whiteSpace=wrap;connectable=0;fillColor=none;top=0;left=0;bottom=0;right=0;align=left;spacingLeft=6;overflow=hidden;strokeColor=inherit;fontSize=16;" vertex="1" parent="p-Zi2nhUh6BRqCjE6ldl-8">
          <mxGeometry x="40" width="140" height="30" as="geometry">
            <mxRectangle width="140" height="30" as="alternateBounds" />
          </mxGeometry>
        </mxCell>
        <mxCell id="p-Zi2nhUh6BRqCjE6ldl-11" value="Home_animals" style="shape=table;startSize=30;container=1;collapsible=0;childLayout=tableLayout;fixedRows=1;rowLines=0;fontStyle=0;strokeColor=default;fontSize=16;" vertex="1" parent="1">
          <mxGeometry x="80" y="120" width="180" height="60" as="geometry" />
        </mxCell>
        <mxCell id="p-Zi2nhUh6BRqCjE6ldl-18" value="" style="shape=tableRow;horizontal=0;startSize=0;swimlaneHead=0;swimlaneBody=0;top=0;left=0;bottom=0;right=0;collapsible=0;dropTarget=0;fillColor=none;points=[[0,0.5],[1,0.5]];portConstraint=eastwest;strokeColor=inherit;fontSize=16;" vertex="1" parent="p-Zi2nhUh6BRqCjE6ldl-11">
          <mxGeometry y="30" width="180" height="30" as="geometry" />
        </mxCell>
        <mxCell id="p-Zi2nhUh6BRqCjE6ldl-19" value="" style="shape=partialRectangle;html=1;whiteSpace=wrap;connectable=0;fillColor=none;top=0;left=0;bottom=0;right=0;overflow=hidden;strokeColor=inherit;fontSize=16;" vertex="1" parent="p-Zi2nhUh6BRqCjE6ldl-18">
          <mxGeometry width="40" height="30" as="geometry">
            <mxRectangle width="40" height="30" as="alternateBounds" />
          </mxGeometry>
        </mxCell>
        <mxCell id="p-Zi2nhUh6BRqCjE6ldl-20" value="" style="shape=partialRectangle;html=1;whiteSpace=wrap;connectable=0;fillColor=none;top=0;left=0;bottom=0;right=0;align=left;spacingLeft=6;overflow=hidden;strokeColor=inherit;fontSize=16;" vertex="1" parent="p-Zi2nhUh6BRqCjE6ldl-18">
          <mxGeometry x="40" width="140" height="30" as="geometry">
            <mxRectangle width="140" height="30" as="alternateBounds" />
          </mxGeometry>
        </mxCell>
        <mxCell id="p-Zi2nhUh6BRqCjE6ldl-21" value="Pack_animals" style="shape=table;startSize=30;container=1;collapsible=0;childLayout=tableLayout;fixedRows=1;rowLines=0;fontStyle=0;strokeColor=default;fontSize=16;" vertex="1" parent="1">
          <mxGeometry x="570" y="120" width="180" height="60" as="geometry" />
        </mxCell>
        <mxCell id="p-Zi2nhUh6BRqCjE6ldl-28" value="" style="shape=tableRow;horizontal=0;startSize=0;swimlaneHead=0;swimlaneBody=0;top=0;left=0;bottom=0;right=0;collapsible=0;dropTarget=0;fillColor=none;points=[[0,0.5],[1,0.5]];portConstraint=eastwest;strokeColor=inherit;fontSize=16;" vertex="1" parent="p-Zi2nhUh6BRqCjE6ldl-21">
          <mxGeometry y="30" width="180" height="30" as="geometry" />
        </mxCell>
        <mxCell id="p-Zi2nhUh6BRqCjE6ldl-29" value="" style="shape=partialRectangle;html=1;whiteSpace=wrap;connectable=0;fillColor=none;top=0;left=0;bottom=0;right=0;overflow=hidden;strokeColor=inherit;fontSize=16;" vertex="1" parent="p-Zi2nhUh6BRqCjE6ldl-28">
          <mxGeometry width="40" height="30" as="geometry">
            <mxRectangle width="40" height="30" as="alternateBounds" />
          </mxGeometry>
        </mxCell>
        <mxCell id="p-Zi2nhUh6BRqCjE6ldl-30" value="" style="shape=partialRectangle;html=1;whiteSpace=wrap;connectable=0;fillColor=none;top=0;left=0;bottom=0;right=0;align=left;spacingLeft=6;overflow=hidden;strokeColor=inherit;fontSize=16;" vertex="1" parent="p-Zi2nhUh6BRqCjE6ldl-28">
          <mxGeometry x="40" width="140" height="30" as="geometry">
            <mxRectangle width="140" height="30" as="alternateBounds" />
          </mxGeometry>
        </mxCell>
        <mxCell id="p-Zi2nhUh6BRqCjE6ldl-31" value="Dogs" style="shape=table;startSize=30;container=1;collapsible=0;childLayout=tableLayout;fixedRows=1;rowLines=0;fontStyle=0;strokeColor=default;fontSize=16;" vertex="1" parent="1">
          <mxGeometry y="240" width="120" height="60" as="geometry" />
        </mxCell>
        <mxCell id="p-Zi2nhUh6BRqCjE6ldl-35" value="" style="shape=tableRow;horizontal=0;startSize=0;swimlaneHead=0;swimlaneBody=0;top=0;left=0;bottom=0;right=0;collapsible=0;dropTarget=0;fillColor=none;points=[[0,0.5],[1,0.5]];portConstraint=eastwest;strokeColor=inherit;fontSize=16;" vertex="1" parent="p-Zi2nhUh6BRqCjE6ldl-31">
          <mxGeometry y="30" width="120" height="30" as="geometry" />
        </mxCell>
        <mxCell id="p-Zi2nhUh6BRqCjE6ldl-36" value="" style="shape=partialRectangle;html=1;whiteSpace=wrap;connectable=0;fillColor=none;top=0;left=0;bottom=0;right=0;overflow=hidden;strokeColor=inherit;fontSize=16;" vertex="1" parent="p-Zi2nhUh6BRqCjE6ldl-35">
          <mxGeometry width="27" height="30" as="geometry">
            <mxRectangle width="27" height="30" as="alternateBounds" />
          </mxGeometry>
        </mxCell>
        <mxCell id="p-Zi2nhUh6BRqCjE6ldl-37" value="" style="shape=partialRectangle;html=1;whiteSpace=wrap;connectable=0;fillColor=none;top=0;left=0;bottom=0;right=0;align=left;spacingLeft=6;overflow=hidden;strokeColor=inherit;fontSize=16;" vertex="1" parent="p-Zi2nhUh6BRqCjE6ldl-35">
          <mxGeometry x="27" width="93" height="30" as="geometry">
            <mxRectangle width="93" height="30" as="alternateBounds" />
          </mxGeometry>
        </mxCell>
        <mxCell id="p-Zi2nhUh6BRqCjE6ldl-41" value="Cats" style="shape=table;startSize=30;container=1;collapsible=0;childLayout=tableLayout;fixedRows=1;rowLines=0;fontStyle=0;strokeColor=default;fontSize=16;" vertex="1" parent="1">
          <mxGeometry x="120" y="340" width="120" height="60" as="geometry" />
        </mxCell>
        <mxCell id="p-Zi2nhUh6BRqCjE6ldl-45" value="" style="shape=tableRow;horizontal=0;startSize=0;swimlaneHead=0;swimlaneBody=0;top=0;left=0;bottom=0;right=0;collapsible=0;dropTarget=0;fillColor=none;points=[[0,0.5],[1,0.5]];portConstraint=eastwest;strokeColor=inherit;fontSize=16;" vertex="1" parent="p-Zi2nhUh6BRqCjE6ldl-41">
          <mxGeometry y="30" width="120" height="30" as="geometry" />
        </mxCell>
        <mxCell id="p-Zi2nhUh6BRqCjE6ldl-46" value="" style="shape=partialRectangle;html=1;whiteSpace=wrap;connectable=0;fillColor=none;top=0;left=0;bottom=0;right=0;overflow=hidden;strokeColor=inherit;fontSize=16;" vertex="1" parent="p-Zi2nhUh6BRqCjE6ldl-45">
          <mxGeometry width="26" height="30" as="geometry">
            <mxRectangle width="26" height="30" as="alternateBounds" />
          </mxGeometry>
        </mxCell>
        <mxCell id="p-Zi2nhUh6BRqCjE6ldl-47" value="" style="shape=partialRectangle;html=1;whiteSpace=wrap;connectable=0;fillColor=none;top=0;left=0;bottom=0;right=0;align=left;spacingLeft=6;overflow=hidden;strokeColor=inherit;fontSize=16;" vertex="1" parent="p-Zi2nhUh6BRqCjE6ldl-45">
          <mxGeometry x="26" width="94" height="30" as="geometry">
            <mxRectangle width="94" height="30" as="alternateBounds" />
          </mxGeometry>
        </mxCell>
        <mxCell id="p-Zi2nhUh6BRqCjE6ldl-51" value="Humsters" style="shape=table;startSize=30;container=1;collapsible=0;childLayout=tableLayout;fixedRows=1;rowLines=0;fontStyle=0;strokeColor=default;fontSize=16;" vertex="1" parent="1">
          <mxGeometry x="240" y="240" width="130" height="60" as="geometry" />
        </mxCell>
        <mxCell id="p-Zi2nhUh6BRqCjE6ldl-52" value="" style="shape=tableRow;horizontal=0;startSize=0;swimlaneHead=0;swimlaneBody=0;top=0;left=0;bottom=0;right=0;collapsible=0;dropTarget=0;fillColor=none;points=[[0,0.5],[1,0.5]];portConstraint=eastwest;strokeColor=inherit;fontSize=16;" vertex="1" parent="p-Zi2nhUh6BRqCjE6ldl-51">
          <mxGeometry y="30" width="130" height="30" as="geometry" />
        </mxCell>
        <mxCell id="p-Zi2nhUh6BRqCjE6ldl-53" value="" style="shape=partialRectangle;html=1;whiteSpace=wrap;connectable=0;fillColor=none;top=0;left=0;bottom=0;right=0;overflow=hidden;pointerEvents=1;strokeColor=inherit;fontSize=16;" vertex="1" parent="p-Zi2nhUh6BRqCjE6ldl-52">
          <mxGeometry width="29" height="30" as="geometry">
            <mxRectangle width="29" height="30" as="alternateBounds" />
          </mxGeometry>
        </mxCell>
        <mxCell id="p-Zi2nhUh6BRqCjE6ldl-54" value="" style="shape=partialRectangle;html=1;whiteSpace=wrap;connectable=0;fillColor=none;top=0;left=0;bottom=0;right=0;align=left;spacingLeft=6;overflow=hidden;strokeColor=inherit;fontSize=16;" vertex="1" parent="p-Zi2nhUh6BRqCjE6ldl-52">
          <mxGeometry x="29" width="101" height="30" as="geometry">
            <mxRectangle width="101" height="30" as="alternateBounds" />
          </mxGeometry>
        </mxCell>
        <mxCell id="p-Zi2nhUh6BRqCjE6ldl-61" value="Donkeys" style="shape=table;startSize=30;container=1;collapsible=0;childLayout=tableLayout;fixedRows=1;rowLines=0;fontStyle=0;strokeColor=default;fontSize=16;" vertex="1" parent="1">
          <mxGeometry x="697" y="240" width="130" height="60" as="geometry" />
        </mxCell>
        <mxCell id="p-Zi2nhUh6BRqCjE6ldl-62" value="" style="shape=tableRow;horizontal=0;startSize=0;swimlaneHead=0;swimlaneBody=0;top=0;left=0;bottom=0;right=0;collapsible=0;dropTarget=0;fillColor=none;points=[[0,0.5],[1,0.5]];portConstraint=eastwest;strokeColor=inherit;fontSize=16;" vertex="1" parent="p-Zi2nhUh6BRqCjE6ldl-61">
          <mxGeometry y="30" width="130" height="30" as="geometry" />
        </mxCell>
        <mxCell id="p-Zi2nhUh6BRqCjE6ldl-63" value="" style="shape=partialRectangle;html=1;whiteSpace=wrap;connectable=0;fillColor=none;top=0;left=0;bottom=0;right=0;overflow=hidden;pointerEvents=1;strokeColor=inherit;fontSize=16;" vertex="1" parent="p-Zi2nhUh6BRqCjE6ldl-62">
          <mxGeometry width="29" height="30" as="geometry">
            <mxRectangle width="29" height="30" as="alternateBounds" />
          </mxGeometry>
        </mxCell>
        <mxCell id="p-Zi2nhUh6BRqCjE6ldl-64" value="" style="shape=partialRectangle;html=1;whiteSpace=wrap;connectable=0;fillColor=none;top=0;left=0;bottom=0;right=0;align=left;spacingLeft=6;overflow=hidden;strokeColor=inherit;fontSize=16;" vertex="1" parent="p-Zi2nhUh6BRqCjE6ldl-62">
          <mxGeometry x="29" width="101" height="30" as="geometry">
            <mxRectangle width="101" height="30" as="alternateBounds" />
          </mxGeometry>
        </mxCell>
        <mxCell id="p-Zi2nhUh6BRqCjE6ldl-65" value="Camels" style="shape=table;startSize=30;container=1;collapsible=0;childLayout=tableLayout;fixedRows=1;rowLines=0;fontStyle=0;strokeColor=default;fontSize=16;" vertex="1" parent="1">
          <mxGeometry x="567" y="340" width="130" height="60" as="geometry" />
        </mxCell>
        <mxCell id="p-Zi2nhUh6BRqCjE6ldl-66" value="" style="shape=tableRow;horizontal=0;startSize=0;swimlaneHead=0;swimlaneBody=0;top=0;left=0;bottom=0;right=0;collapsible=0;dropTarget=0;fillColor=none;points=[[0,0.5],[1,0.5]];portConstraint=eastwest;strokeColor=inherit;fontSize=16;" vertex="1" parent="p-Zi2nhUh6BRqCjE6ldl-65">
          <mxGeometry y="30" width="130" height="30" as="geometry" />
        </mxCell>
        <mxCell id="p-Zi2nhUh6BRqCjE6ldl-67" value="" style="shape=partialRectangle;html=1;whiteSpace=wrap;connectable=0;fillColor=none;top=0;left=0;bottom=0;right=0;overflow=hidden;pointerEvents=1;strokeColor=inherit;fontSize=16;" vertex="1" parent="p-Zi2nhUh6BRqCjE6ldl-66">
          <mxGeometry width="29" height="30" as="geometry">
            <mxRectangle width="29" height="30" as="alternateBounds" />
          </mxGeometry>
        </mxCell>
        <mxCell id="p-Zi2nhUh6BRqCjE6ldl-68" value="" style="shape=partialRectangle;html=1;whiteSpace=wrap;connectable=0;fillColor=none;top=0;left=0;bottom=0;right=0;align=left;spacingLeft=6;overflow=hidden;strokeColor=inherit;fontSize=16;" vertex="1" parent="p-Zi2nhUh6BRqCjE6ldl-66">
          <mxGeometry x="29" width="101" height="30" as="geometry">
            <mxRectangle width="101" height="30" as="alternateBounds" />
          </mxGeometry>
        </mxCell>
        <mxCell id="p-Zi2nhUh6BRqCjE6ldl-69" value="Horses" style="shape=table;startSize=30;container=1;collapsible=0;childLayout=tableLayout;fixedRows=1;rowLines=0;fontStyle=0;strokeColor=default;fontSize=16;" vertex="1" parent="1">
          <mxGeometry x="437" y="240" width="130" height="60" as="geometry" />
        </mxCell>
        <mxCell id="p-Zi2nhUh6BRqCjE6ldl-70" value="" style="shape=tableRow;horizontal=0;startSize=0;swimlaneHead=0;swimlaneBody=0;top=0;left=0;bottom=0;right=0;collapsible=0;dropTarget=0;fillColor=none;points=[[0,0.5],[1,0.5]];portConstraint=eastwest;strokeColor=inherit;fontSize=16;" vertex="1" parent="p-Zi2nhUh6BRqCjE6ldl-69">
          <mxGeometry y="30" width="130" height="30" as="geometry" />
        </mxCell>
        <mxCell id="p-Zi2nhUh6BRqCjE6ldl-71" value="" style="shape=partialRectangle;html=1;whiteSpace=wrap;connectable=0;fillColor=none;top=0;left=0;bottom=0;right=0;overflow=hidden;pointerEvents=1;strokeColor=inherit;fontSize=16;" vertex="1" parent="p-Zi2nhUh6BRqCjE6ldl-70">
          <mxGeometry width="29" height="30" as="geometry">
            <mxRectangle width="29" height="30" as="alternateBounds" />
          </mxGeometry>
        </mxCell>
        <mxCell id="p-Zi2nhUh6BRqCjE6ldl-72" value="" style="shape=partialRectangle;html=1;whiteSpace=wrap;connectable=0;fillColor=none;top=0;left=0;bottom=0;right=0;align=left;spacingLeft=6;overflow=hidden;strokeColor=inherit;fontSize=16;" vertex="1" parent="p-Zi2nhUh6BRqCjE6ldl-70">
          <mxGeometry x="29" width="101" height="30" as="geometry">
            <mxRectangle width="101" height="30" as="alternateBounds" />
          </mxGeometry>
        </mxCell>
        <mxCell id="p-Zi2nhUh6BRqCjE6ldl-73" style="edgeStyle=orthogonalEdgeStyle;rounded=0;orthogonalLoop=1;jettySize=auto;html=1;exitX=0.5;exitY=0;exitDx=0;exitDy=0;entryX=0;entryY=0.133;entryDx=0;entryDy=0;entryPerimeter=0;" edge="1" parent="1" source="p-Zi2nhUh6BRqCjE6ldl-11" target="p-Zi2nhUh6BRqCjE6ldl-8">
          <mxGeometry relative="1" as="geometry" />
        </mxCell>
        <mxCell id="p-Zi2nhUh6BRqCjE6ldl-74" style="edgeStyle=orthogonalEdgeStyle;rounded=0;orthogonalLoop=1;jettySize=auto;html=1;exitX=0.5;exitY=0;exitDx=0;exitDy=0;entryX=1.017;entryY=0.133;entryDx=0;entryDy=0;entryPerimeter=0;" edge="1" parent="1" source="p-Zi2nhUh6BRqCjE6ldl-21" target="p-Zi2nhUh6BRqCjE6ldl-8">
          <mxGeometry relative="1" as="geometry">
            <Array as="points">
              <mxPoint x="660" y="70" />
              <mxPoint x="507" y="70" />
            </Array>
          </mxGeometry>
        </mxCell>
        <mxCell id="p-Zi2nhUh6BRqCjE6ldl-75" style="edgeStyle=orthogonalEdgeStyle;rounded=0;orthogonalLoop=1;jettySize=auto;html=1;exitX=0.5;exitY=0;exitDx=0;exitDy=0;entryX=-0.011;entryY=0.1;entryDx=0;entryDy=0;entryPerimeter=0;" edge="1" parent="1" source="p-Zi2nhUh6BRqCjE6ldl-31" target="p-Zi2nhUh6BRqCjE6ldl-18">
          <mxGeometry relative="1" as="geometry" />
        </mxCell>
        <mxCell id="p-Zi2nhUh6BRqCjE6ldl-76" style="edgeStyle=orthogonalEdgeStyle;rounded=0;orthogonalLoop=1;jettySize=auto;html=1;exitX=0.5;exitY=0;exitDx=0;exitDy=0;entryX=0.994;entryY=0.067;entryDx=0;entryDy=0;entryPerimeter=0;" edge="1" parent="1" source="p-Zi2nhUh6BRqCjE6ldl-51" target="p-Zi2nhUh6BRqCjE6ldl-18">
          <mxGeometry relative="1" as="geometry" />
        </mxCell>
        <mxCell id="p-Zi2nhUh6BRqCjE6ldl-78" style="edgeStyle=orthogonalEdgeStyle;rounded=0;orthogonalLoop=1;jettySize=auto;html=1;exitX=0.5;exitY=0;exitDx=0;exitDy=0;entryX=0.556;entryY=0.967;entryDx=0;entryDy=0;entryPerimeter=0;" edge="1" parent="1" source="p-Zi2nhUh6BRqCjE6ldl-41" target="p-Zi2nhUh6BRqCjE6ldl-18">
          <mxGeometry relative="1" as="geometry" />
        </mxCell>
        <mxCell id="p-Zi2nhUh6BRqCjE6ldl-79" style="edgeStyle=orthogonalEdgeStyle;rounded=0;orthogonalLoop=1;jettySize=auto;html=1;exitX=0.5;exitY=0;exitDx=0;exitDy=0;entryX=-0.006;entryY=0.167;entryDx=0;entryDy=0;entryPerimeter=0;" edge="1" parent="1" source="p-Zi2nhUh6BRqCjE6ldl-69" target="p-Zi2nhUh6BRqCjE6ldl-28">
          <mxGeometry relative="1" as="geometry" />
        </mxCell>
        <mxCell id="p-Zi2nhUh6BRqCjE6ldl-80" style="edgeStyle=orthogonalEdgeStyle;rounded=0;orthogonalLoop=1;jettySize=auto;html=1;exitX=0.5;exitY=0;exitDx=0;exitDy=0;entryX=0.994;entryY=0.067;entryDx=0;entryDy=0;entryPerimeter=0;" edge="1" parent="1" source="p-Zi2nhUh6BRqCjE6ldl-61" target="p-Zi2nhUh6BRqCjE6ldl-28">
          <mxGeometry relative="1" as="geometry" />
        </mxCell>
        <mxCell id="p-Zi2nhUh6BRqCjE6ldl-82" style="edgeStyle=orthogonalEdgeStyle;rounded=0;orthogonalLoop=1;jettySize=auto;html=1;exitX=0.5;exitY=0;exitDx=0;exitDy=0;entryX=0.346;entryY=1;entryDx=0;entryDy=0;entryPerimeter=0;" edge="1" parent="1" source="p-Zi2nhUh6BRqCjE6ldl-65" target="p-Zi2nhUh6BRqCjE6ldl-28">
          <mxGeometry relative="1" as="geometry" />
        </mxCell>
      </root>
    </mxGraphModel>
  </diagram>
</mxfile>
